<svg aria-hidden="true" style="position:absolute;width:0;height:0;overflow:hidden" xmlns="http://www.w3.org/2000/svg">
  <defs>
    <symbol id="icon-close" viewBox="0 0 32 32">
      <path  stroke-linejoin="round" stroke-linecap="round" stroke-width="2.286" d="M24 8 8 24M8 8l16 16"/>
    </symbol>
    <symbol id="icon-twitter" viewBox="0 0 32 32">
      <path stroke-linejoin="round" stroke-linecap="round" stroke-width="2.667" d="M30.667 4a14.37 14.37 0 0 1-4.084 2.013l-.103.027a5.973 5.973 0 0 0-10.479 4.004v-.004 1.333a14.154 14.154 0 0 1-6.838-1.55l.08.037C7.15 8.807 4.683 6.297 3.335 4.38c0 0-4.667 12.953 7.333 18.287a15.387 15.387 0 0 1-9.364 2.666l.031.001c12 6.667 26.667 0 26.667-15.333 0-.372-.037-.741-.107-1.107a10.277 10.277 0 0 0 2.758-4.822l.015-.071z"/>
    </symbol>
    <symbol id="icon-play" viewBox="0 0 30 30">
      <path d="M2.825.19 29.174 16 2.825 31.81z"/>
    </symbol>
    <symbol id="icon-burger" viewBox="0 0 32 32">
      <path stroke-linejoin="round" stroke-linecap="round" stroke-width="2.5" d="M4 16h24M4 8h24M4 24h24"/>
    </symbol>
    <symbol id="icon-ukraine" viewBox="0 0 32 32">
      <path fill="gold" style="fill:var(--color3, #ffd700)" d="M31.832 5.058H.242v23.509h31.59V5.058z"/>
      <path fill="#0057b7" style="fill:var(--color4, #0057b7)" d="M.243 5.058h31.589v11.754H.242V5.058z"/>
    </symbol>
    <symbol id="icon-spoon" viewBox="0 0 32 32">
      <path fill="#fd9222" style="fill:var(--color5, #fd9222)" d="M15.452 14.106a5.125 5.125 0 0 1-1.177-3.279v-.003c0-4.324 5.181-8.642 10.362-8.642a5.184 5.184 0 0 1 5.181 5.182c0 5.182-4.317 10.364-8.646 10.364h-.003a5.13 5.13 0 0 1-3.287-1.184l.009.007L5.133 29.312a1.73 1.73 0 0 1-2.444-2.446l-.001.001 12.764-12.761z"/>
    </symbol>
    <symbol id="icon-instagram" viewBox="0 0 32 32">
      <path stroke-linejoin="round" stroke-linecap="round" stroke-width="2.667" d="M22.667 2.667H9.334a6.667 6.667 0 0 0-6.667 6.667v13.333a6.667 6.667 0 0 0 6.667 6.667h13.333a6.667 6.667 0 0 0 6.667-6.667V9.334a6.667 6.667 0 0 0-6.667-6.667z"/>
      <path stroke-linejoin="round" stroke-linecap="round" stroke-width="2.667" d="M21.333 15.16a5.334 5.334 0 0 1-10.548 1.594l-.004-.03a5.334 5.334 0 0 1 10.548-1.594l.004.03z"/>
      <path stroke-linejoin="round" stroke-linecap="round" stroke-width="2.667" d="M21.333 15.16a5.334 5.334 0 0 1-10.548 1.594l-.004-.03a5.334 5.334 0 0 1 10.548-1.594l.004.03zm2-6.493h.013m-.013 0h.013"/>
    </symbol>
    <symbol id="icon-chocolate" viewBox="0 0 32 32">
      <path style="fill:var(--color6, #000)" d="m13.822 2.413 7.527 7.536.08-.08a.854.854 0 0 1 1.185-.012l.873.873c.305.305.315.77.083 1.094l-.004.007-.143.192 6.16 6.16c.55.55.55 1.43 0 1.98l-9.43 9.43c-.55.55-1.43.55-1.98 0l-4.447-4.447a.84.84 0 0 1-1.255.071l-2.6-2.6a.854.854 0 0 1-.012-1.185l.006-.007.077-.076-7.527-7.527c-.55-.55-.55-1.43 0-1.98l9.43-9.43c.55-.55 1.43-.55 1.98 0v.001zm6.582 8.48-1.756-1.755a.59.59 0 0 0-.85 0l-3.58 3.58a.603.603 0 0 0 0 .86l1.749 1.749.61-.61-1.565-1.565 3.21-3.22 1.569 1.574.613-.613zm-5.076 5.072-1.754-1.754a.59.59 0 0 0-.85 0l-3.59 3.59c-.24.23-.24.61 0 .85l1.752 1.752.616-.616-1.57-1.564 3.22-3.21 1.564 1.563.612-.611zM8.822 8.193l3.58 3.58c.24.24.62.24.85-.01l3.58-3.58a.579.579 0 0 0 .18-.42h.01c0-.15-.06-.31-.18-.43l-3.58-3.58a.604.604 0 0 0-.86 0l-3.58 3.59c-.24.23-.24.61 0 .85zm-5.07 5.07 3.58 3.58c.24.24.62.24.85 0l3.58-3.58a.579.579 0 0 0 .18-.42v-.01.001h.01c0-.16-.06-.31-.18-.43l-3.58-3.58a.59.59 0 0 0-.85 0l-3.59 3.59c-.24.23-.24.61 0 .85zm6.933 8.754 2.362 2.363 9.636-13.04-.655-.655-11.343 11.332z"/>
      <path fill="#fd9222" style="fill:var(--color5, #fd9222)" d="m13.822 2.413 7.527 7.536.08-.08a.854.854 0 0 1 1.185-.012l.873.873c.305.305.315.77.083 1.094l-.004.007-.143.192 6.16 6.16c.55.55.55 1.43 0 1.98l-9.43 9.43c-.55.55-1.43.55-1.98 0l-4.447-4.447a.84.84 0 0 1-1.255.071l-2.6-2.6a.854.854 0 0 1-.012-1.185l.006-.007.077-.076-7.527-7.527c-.55-.55-.55-1.43 0-1.98l9.43-9.43c.55-.55 1.43-.55 1.98 0v.001zm6.582 8.48-1.756-1.755a.59.59 0 0 0-.85 0l-3.58 3.58a.603.603 0 0 0 0 .86l1.749 1.749.61-.61-1.565-1.565 3.21-3.22 1.569 1.574.613-.613zm-5.076 5.072-1.754-1.754a.59.59 0 0 0-.85 0l-3.59 3.59c-.24.23-.24.61 0 .85l1.752 1.752.616-.616-1.57-1.564 3.22-3.21 1.564 1.563.612-.611zM8.822 8.193l3.58 3.58c.24.24.62.24.85-.01l3.58-3.58a.579.579 0 0 0 .18-.42h.01c0-.15-.06-.31-.18-.43l-3.58-3.58a.604.604 0 0 0-.86 0l-3.58 3.59c-.24.23-.24.61 0 .85zm-5.07 5.07 3.58 3.58c.24.24.62.24.85 0l3.58-3.58a.579.579 0 0 0 .18-.42v-.01.001h.01c0-.16-.06-.31-.18-.43l-3.58-3.58a.59.59 0 0 0-.85 0l-3.59 3.59c-.24.23-.24.61 0 .85zm6.933 8.754 2.362 2.363 9.636-13.04-.655-.655-11.343 11.332z"/>
    </symbol>
    <symbol id="icon-coin" viewBox="0 0 32 32">
      <path fill="#fd9222" style="fill:var(--color5, #fd9222)" d="M16 2.667c-7.333 0-13.333 6-13.333 13.333s6 13.333 13.333 13.333 13.333-6 13.333-13.333S23.333 2.667 16 2.667zm0 24c-5.867 0-10.667-4.8-10.667-10.667S10.133 5.333 16 5.333 26.667 10.133 26.667 16 21.867 26.667 16 26.667z"/>
      <path fill="#fd9222" style="fill:var(--color5, #fd9222)" d="M17.733 14.667h-3.466c-.667 0-1.2-.534-1.2-1.2 0-.667.533-1.2 1.2-1.2H19.2c.8 0 1.334-.534 1.334-1.334S20 9.6 19.2 9.6h-1.866V8.4c0-.8-.534-1.333-1.334-1.333S14.667 7.6 14.667 8.4v1.2h-.4a3.87 3.87 0 0 0-3.867 3.867 3.87 3.87 0 0 0 3.867 3.866H17.6c.667 0 1.2.534 1.2 1.2 0 .667-.533 1.2-1.2 1.2h-4.933c-.8 0-1.333.534-1.333 1.334s.533 1.333 1.333 1.333h2v1.2c0 .8.533 1.333 1.333 1.333s1.334-.533 1.334-1.333v-1.2h.4a3.87 3.87 0 0 0 3.866-3.867 3.87 3.87 0 0 0-3.867-3.866z"/>
    </symbol>
    <symbol id="icon-chocolate-header" viewBox="0 0 32 32">
      <path fill="#fcf1e0" style="fill:var(--color7, #fcf1e0)" d="M3.944 20.076 14.721 2.652l.64-.675 8.235 5.491.057 3.315 2.009 3.28-8.88 14.076-12.839-8.063z"/>
      <path fill="none" stroke="#fd9222" style="stroke:var(--color5, #fd9222)" stroke-linejoin="round" stroke-linecap="round" stroke-width="2.667" d="M21.635 23.88 7.448 15.016m3.913-6.417 14.185 8.864m-14.917 8.401L22.365 6.615m4.811 8.173c-3.04-1.899-4.233-3.383-2.277-6.591l-9.627-6.016L3.537 21.432l14.187 8.864 9.453-15.507z"/>
    </symbol>
    <symbol id="scroll" viewBox="0 0 28 28">
      <path style="fill:var(--color1, #fff)" d="M14 28c7.732 0 14-6.268 14-14S21.732 0 14 0 0 6.268 0 14s6.268 14 14 14z"/>
      <path style="fill:var(--color2, #fd9222)" d="M14.473 14.934a.664.664 0 0 1-.946 0l-3.053-3.06a.664.664 0 0 0-.946 0 .668.668 0 0 0 0 .94l3.06 3.06a2.002 2.002 0 0 0 2.826 0l3.06-3.06a.664.664 0 0 0 .144-.723.659.659 0 0 0-.361-.363.66.66 0 0 0-.512 0 .664.664 0 0 0-.217.146l-3.053 3.06z"/>
    </symbol>
    <symbol id="icon-x-close" viewBox="0 0 28 28">
      <path stroke-linejoin="round" stroke-linecap="round" stroke-width="2" d="M21 7 7 21M7 7l14 14"/>
    </symbol>
    <symbol id="mastercard" viewBox="0 0 47 32">
      <path fill="#fafafa" style="fill:var(--color1, #fafafa)" d="M4.267.533h38.4A3.733 3.733 0 0 1 46.4 4.266v23.467a3.733 3.733 0 0 1-3.733 3.733h-38.4a3.733 3.733 0 0 1-3.733-3.733V4.266A3.733 3.733 0 0 1 4.267.533z"/>
      <path fill="#ed0006" style="fill:var(--color2, #ed0006)" d="M23.467 23.29a9.69 9.69 0 0 1-6.331 2.345c-5.39 0-9.76-4.396-9.76-9.818s4.37-9.818 9.76-9.818a9.69 9.69 0 0 1 6.331 2.345 9.69 9.69 0 0 1 6.331-2.345c5.391 0 9.76 4.395 9.76 9.818s-4.37 9.818-9.76 9.818a9.69 9.69 0 0 1-6.331-2.345z"/>
      <path fill="#f9a000" style="fill:var(--color3, #f9a000)" d="M23.467 23.29c2.099-1.801 3.429-4.48 3.429-7.472s-1.331-5.672-3.429-7.472a9.69 9.69 0 0 1 6.331-2.345c5.391 0 9.76 4.395 9.76 9.818s-4.37 9.818-9.76 9.818a9.69 9.69 0 0 1-6.331-2.345z"/>
      <path fill="#ff5e00" style="fill:var(--color4, #ff5e00)" d="M23.467 23.29c2.099-1.801 3.429-4.48 3.429-7.472s-1.331-5.672-3.429-7.472c-2.099 1.801-3.429 4.48-3.429 7.472s1.331 5.672 3.429 7.472z"/>
      <path fill="none" stroke="#fafafa" style="stroke:var(--color1, #fafafa)" stroke-width="1.067" d="M4.267.533h38.4A3.733 3.733 0 0 1 46.4 4.266v23.467a3.733 3.733 0 0 1-3.733 3.733h-38.4a3.733 3.733 0 0 1-3.733-3.733V4.266A3.733 3.733 0 0 1 4.267.533z"/>
    </symbol>

<symbol id="icon-coffee" fill="#000000" height="800px" width="800px" version="1.1" xmlns="http://www.w3.org/2000/svg" viewBox="0 0 511 511" xmlns:xlink="http://www.w3.org/1999/xlink" enable-background="new 0 0 511 511">
  <g>
    <path d="m399.5,192h-32c-5.647,0-11.161,0.742-16.5,2.177v-34.677c0-8.547-6.953-15.5-15.5-15.5h-272c-8.547,0-15.5,6.953-15.5,15.5v280c0,19.43 14.106,35.617 32.613,38.887 3.27,18.506 19.457,32.613 38.887,32.613h160c19.43,0 35.617-14.107 38.887-32.613 18.507-3.27 32.613-19.457 32.613-38.887v-26.678c5.339,1.436 10.854,2.178 16.5,2.178h32c35.014,0 63.5-28.486 63.5-63.5v-96c0-35.014-28.486-63.5-63.5-63.5zm-48.5,63.5c0-9.098 7.402-16.5 16.5-16.5h32c9.098,0 16.5,7.402 16.5,16.5v96c0,9.098-7.402,16.5-16.5,16.5h-32c-9.098,0-16.5-7.402-16.5-16.5v-96zm-71.5,240.5h-160c-10.894,0-20.146-7.149-23.321-17h206.643c-3.176,9.851-12.428,17-23.322,17zm56.5-56.5c0,13.509-10.991,24.5-24.5,24.5h-224c-13.509,0-24.5-10.991-24.5-24.5v-280c0-0.276 0.224-0.5 0.5-0.5h272c0.276,0 0.5,0.224 0.5,0.5v280zm112-88c0,26.743-21.757,48.5-48.5,48.5h-32c-5.707,0-11.235-0.98-16.5-2.89v-18.792c4.802,2.965 10.454,4.681 16.5,4.681h32c17.369,0 31.5-14.131 31.5-31.5v-96c0-17.369-14.131-31.5-31.5-31.5h-32c-6.046,0-11.698,1.716-16.5,4.681v-18.792c5.264-1.91 10.792-2.889 16.5-2.889h32c26.743,0 48.5,21.757 48.5,48.5v96.001z"/>
    <path d="m184,119.5c0,4.142 3.358,7.5 7.5,7.5s7.5-3.358 7.5-7.5c0-6.554 2.464-9.427 6.193-13.776 4.369-5.095 9.807-11.436 9.807-23.541 0-12.109-5.437-18.454-9.805-23.551-3.73-4.353-6.195-7.229-6.195-13.791s2.464-9.438 6.195-13.791c4.368-5.096 9.805-11.441 9.805-23.55 0-4.142-3.358-7.5-7.5-7.5s-7.5,3.358-7.5,7.5c0,6.562-2.464,9.438-6.195,13.791-4.368,5.097-9.805,11.441-9.805,23.551s5.437,18.454 9.805,23.551c3.73,4.353 6.195,7.229 6.195,13.791 0,6.554-2.464,9.427-6.193,13.776-4.369,5.095-9.807,11.436-9.807,23.54z"/>
    <path d="m224,119.5c0,4.142 3.358,7.5 7.5,7.5s7.5-3.358 7.5-7.5c0-6.554 2.464-9.427 6.193-13.776 4.369-5.095 9.807-11.436 9.807-23.541 0-12.109-5.437-18.454-9.805-23.551-3.73-4.353-6.195-7.229-6.195-13.791 0-4.142-3.358-7.5-7.5-7.5s-7.5,3.358-7.5,7.5c0,12.109 5.437,18.454 9.805,23.551 3.73,4.353 6.195,7.229 6.195,13.791 0,6.554-2.464,9.427-6.193,13.776-4.369,5.096-9.807,11.437-9.807,23.541z"/>
    <path d="m144,119.5c0,4.142 3.358,7.5 7.5,7.5s7.5-3.358 7.5-7.5c0-6.554 2.464-9.427 6.193-13.776 4.369-5.095 9.807-11.436 9.807-23.541 0-12.109-5.437-18.454-9.805-23.551-3.73-4.353-6.195-7.229-6.195-13.791 0-4.142-3.358-7.5-7.5-7.5s-7.5,3.358-7.5,7.5c0,12.109 5.437,18.454 9.805,23.551 3.73,4.353 6.195,7.229 6.195,13.791 0,6.554-2.464,9.427-6.193,13.776-4.369,5.096-9.807,11.437-9.807,23.541z"/>
    <path d="m311.5,176c-4.142,0-7.5,3.358-7.5,7.5v24c0,4.142 3.358,7.5 7.5,7.5s7.5-3.358 7.5-7.5v-24c0-4.142-3.358-7.5-7.5-7.5z"/>
    <path d="m311.5,232c-4.142,0-7.5,3.358-7.5,7.5v120c0,4.142 3.358,7.5 7.5,7.5s7.5-3.358 7.5-7.5v-120c0-4.142-3.358-7.5-7.5-7.5z"/>
  </g>
</symbol>


  </defs>
</svg>
